# xmcd CD database file
#
# Track frame offsets:
#	150
#	28910
#	55807
#	80395
#	91551
#	114035
#	136442
#	155356
#	188540
#
# Disc length: 2909 seconds
#
# Revision: 1
# Processed by: cddbd v1.5.2PL0 Copyright (c) Steve Scherf et al.
# Submitted via: CDex 1.70beta2
#
DISCID=5f0b5b09
DTITLE=Oregon - 45th Parallell
DYEAR=1900
DGENRE=Jazz
TTITLE0=Pageant
TTITLE1=Hand in Hand
TTITLE2=King Font
TTITLE3=Riding On The D Train
TTITLE4=Beneath An Evening Sky
TTITLE5=Chihuahua Dreams
TTITLE6=Urumchi
TTITLE7=Les Douzilles
TTITLE8=Bombay Vice - Pageant (Epilogue)
EXTD=
EXTT0=
EXTT1=
EXTT2=
EXTT3=
EXTT4=
EXTT5=
EXTT6=
EXTT7=
EXTT8=
PLAYORDER=
